:FULLY-SPECIFIED
:FORCE-ALL-JOINTS-BE-3DOF
:DEGREES
306
root -0.0186063 15.3761 -36.0729 10.5869 57.377 4.45611
lfemur -18.8642 18.2601 -13.3703
ltibia 63.0419 -0 0
lfoot -26.9277 28.4296 0.00967227
ltoes 2.20206 -0 0
rfemur -37.2034 -10.3565 9.26871
rtibia 47.777 -0 0
rfoot -3.43708 -7.12766 2.54518
rtoes -9.14535 0 0
lowerback 13.8592 1.5087 -1.58556
upperback -2.70698 2.06174 2.43565
thorax -10.6994 1.15298 3.09881
lowerneck -5.76682 3.19584 0.110525
upperneck 6.26045 4.67225 -4.60267
head 3.49556 2.14572 -1.15971
lclavicle 2.79541e-15 -7.95139e-15 0
lhumerus -29.1229 -30.1104 90.8493
lradius 105.067 -0 0
lwrist 39.354 0 0
lhand -20.3252 47.583 0.109446
lfingers 7.12502 -0 0
lthumb 6.02562 77.4694 0.104884
rclavicle 2.79541e-15 -7.95139e-15 0
rhumerus -5.19865 34.34 -76.0674
rradius 79.0603 -0 0
rwrist -23.0367 0 0
rhand 20.0959 -24.9421 1.55118
rfingers 7.12502 -0 0
rthumb 43.7479 -41.7116 3.82578
307
root 0.112552 15.3605 -36.0234 10.9814 58.9834 5.25052
lfemur -17.8929 17.4281 -13.3764
ltibia 62.2777 -0 0
lfoot -27.005 28.395 0.00976573
ltoes 1.53449 -0 0
rfemur -37.5381 -9.77562 8.81683
rtibia 47.1057 -0 0
rfoot -2.31872 -6.48631 2.57021
rtoes -7.93433 0 0
lowerback 13.9062 1.48973 -1.96083
upperback -2.6459 1.96412 2.39627
thorax -10.6617 1.12711 3.29104
lowerneck -5.79132 2.80822 -0.151312
upperneck 6.3237 4.15816 -4.35091
head 3.50715 1.89257 -1.06478
lclavicle 2.79541e-15 -7.95139e-15 0
lhumerus -30 -30.4266 92.1145
lradius 104.667 -0 0
lwrist 39.9254 0 0
lhand -20.4172 47.2531 0.110505
lfingers 7.12502 -0 0
lthumb 5.93685 77.142 0.105899
rclavicle 2.79541e-15 -7.95139e-15 0
rhumerus -2.97057 33.5661 -75.2752
rradius 77.7691 -0 0
rwrist -21.8275 0 0
rhand 18.801 -25.2799 1.56645
rfingers 7.12502 -0 0
rthumb 42.5381 -42.6095 3.86364
308
root 0.243711 15.3449 -35.9739 11.4406 60.5866 6.10658
lfemur -16.9259 16.5963 -13.3971
ltibia 61.5135 -0 0
lfoot -27.0822 28.3603 0.00981246
ltoes 0.866932 -0 0
rfemur -37.8769 -9.19739 8.36229
rtibia 46.4344 -0 0
rfoot -1.20013 -5.84459 2.58273
rtoes -6.72331 0 0
lowerback 13.9532 1.47106 -2.33611
upperback -2.58475 1.86655 2.35678
thorax -10.6241 1.1011 3.48325
lowerneck -5.81404 2.4205 -0.412902
upperneck 6.38464 3.64379 -4.09988
head 3.51833 1.6394 -0.96991
lclavicle 2.79541e-15 -7.95139e-15 0
lhumerus -30.8879 -30.726 93.3893
lradius 104.267 -0 0
lwrist 40.4969 0 0
lhand -20.5091 46.9233 0.111034
lfingers 7.12502 -0 0
lthumb 5.84807 76.8146 0.106406
rclavicle 2.79541e-15 -7.95139e-15 0
rhumerus -0.775314 32.7673 -74.5264
rradius 76.4778 -0 0
rwrist -20.6183 0 0
rhand 17.5059 -25.6179 1.57409
rfingers 7.12502 -0 0
rthumb 41.3279 -43.5081 3.88258
309
root 0.374869 15.3292 -35.9245 11.9753 62.1859 7.03516
lfemur -15.9626 15.7649 -13.4324
ltibia 60.7492 -0 0
lfoot -27.1595 28.3257 0.00981246
ltoes 0.199368 -0 0
rfemur -38.2198 -8.62183 7.90501
rtibia 45.7631 -0 0
rfoot -0.0814672 -5.20274 2.58273
rtoes -5.51229 0 0
lowerback 14.0003 1.4527 -2.7114
upperback -2.52353 1.76902 2.3172
thorax -10.5866 1.07497 3.67545
lowerneck -5.83498 2.03268 -0.674269
upperneck 6.4433 3.12916 -3.84953
head 3.52909 1.38621 -0.875103
lclavicle 2.79541e-15 -7.95139e-15 0
lhumerus -31.7859 -31.0082 94.6731
lradius 103.867 -0 0
lwrist 41.0683 0 0
lhand -20.6011 46.5934 0.111034
lfingers 7.12502 -0 0
lthumb 5.75929 76.4872 0.106406
rclavicle 2.79541e-15 -7.95139e-15 0
rhumerus 1.38787 31.9453 -73.821
rradius 75.1866 -0 0
rwrist -19.4091 0 0
rhand 16.2108 -25.9561 1.57409
rfingers 7.12502 -0 0
rthumb 40.1176 -44.4068 3.88258
310
root 0.506028 15.3136 -35.875 12.5986 63.7808 8.04966
lfemur -15.0026 14.9343 -13.482
ltibia 59.985 -0 0
lfoot -27.2367 28.291 0.00976573
ltoes -0.468195 0 0
rfemur -38.5669 -8.049 7.44493
rtibia 45.0918 -0 0
rfoot 1.03712 -4.56102 2.57021
rtoes -4.30127 0 0
lowerback 14.0476 1.43465 -3.08671
upperback -2.46226 1.67153 2.27751
thorax -10.5492 1.04872 3.86762
lowerneck -5.85414 1.64477 -0.935438
upperneck 6.49967 2.61428 -3.59982
head 3.53942 1.133 -0.780353
lclavicle 2.79541e-15 -7.95139e-15 0
lhumerus -32.6938 -31.273 95.9657
lradius 103.466 -0 0
lwrist 41.6398 0 0
lhand -20.693 46.2636 0.110505
lfingers 7.12502 -0 0
lthumb 5.67051 76.1598 0.105899
rclavicle 2.79541e-15 -7.95139e-15 0
rhumerus 3.51988 31.1016 -73.1585
rradius 73.8953 -0 0
rwrist -18.1998 0 0
rhand 14.9158 -26.2941 1.56645
rfingers 7.12502 -0 0
rthumb 38.9074 -45.3054 3.86364
311
root 0.637186 15.298 -35.8255 13.3271 65.3701 9.16681
lfemur -14.0455 14.1045 -13.5458
ltibia 59.2208 -0 0
lfoot -27.314 28.2564 0.00967227
ltoes -1.13576 0 0
rfemur -38.9181 -7.47896 6.98199
rtibia 44.4205 -0 0
rfoot 2.15548 -3.91967 2.54518
rtoes -3.09025 0 0
lowerback 14.095 1.41691 -3.46203
upperback -2.40092 1.57408 2.23772
thorax -10.5118 1.02234 4.05978
lowerneck -5.87154 1.25677 -1.19643
upperneck 6.55378 2.09916 -3.3507
head 3.54934 0.879774 -0.685656
lclavicle 2.79541e-15 -7.95139e-15 0
lhumerus -33.6109 -31.5201 97.2666
lradius 103.066 -0 0
lwrist 42.2112 0 0
lhand -20.785 45.9337 0.109446
lfingers 7.12502 -0 0
lthumb 5.58174 75.8324 0.104884
rclavicle 2.79541e-15 -7.95139e-15 0
rhumerus 5.62169 30.2375 -72.5386
rradius 72.6041 -0 0
rwrist -16.9906 0 0
rhand 13.6208 -26.6319 1.55118
rfingers 7.12502 -0 0
rthumb 37.6976 -46.2033 3.82578
312
root 0.768345 15.2824 -35.776 14.1816 66.9526 10.4077
lfemur -13.0908 13.2759 -13.6235
ltibia 58.4566 -0 0
lfoot -27.3913 28.2217 0.00953209
ltoes -1.80332 0 0
rfemur -39.2735 -6.91175 6.51611
rtibia 43.7491 -0 0
rfoot 3.27347 -3.27895 2.50765
rtoes -1.87923 0 0
lowerback 14.1425 1.39948 -3.83736
upperback -2.33951 1.47668 2.19783
thorax -10.4746 0.995832 4.25192
lowerneck -5.88716 0.868701 -1.45728
upperneck 6.60564 1.58382 -3.10215
head 3.55884 0.626534 -0.591009
lclavicle 2.79541e-15 -7.95139e-15 0
lhumerus -34.5367 -31.7494 98.5753
lradius 102.666 -0 0
lwrist 42.7827 0 0
lhand -20.8769 45.6039 0.107858
lfingers 7.12502 -0 0
lthumb 5.49297 75.505 0.103362
rclavicle 2.79541e-15 -7.95139e-15 0
rhumerus 7.69439 29.3547 -71.9608
rradius 71.3128 -0 0
rwrist -15.7814 0 0
rhand 12.3259 -26.9693 1.52827
rfingers 7.12502 -0 0
rthumb 36.4887 -47.1001 3.76901
313
root 0.899503 15.2668 -35.7265 15.1891 68.5268 11.7994
lfemur -12.1381 12.4487 -13.7151
ltibia 57.6923 -0 0
lfoot -27.4685 28.1871 0.00934517
ltoes -2.47089 0 0
rfemur -39.6331 -6.34744 6.04724
rtibia 43.0778 -0 0
rfoot 4.39092 -2.63911 2.45764
rtoes -0.668213 0 0
lowerback 14.1901 1.38236 -4.2127
upperback -2.27804 1.37932 2.15784
thorax -10.4374 0.969202 4.44404
lowerneck -5.90102 0.480563 -1.71799
upperneck 6.65524 1.06825 -2.85411
head 3.56792 0.373278 -0.496407
lclavicle 2.79541e-15 -7.95139e-15 0
lhumerus -35.4706 -31.9605 99.8913
lradius 102.266 -0 0
lwrist 43.3541 0 0
lhand -20.9689 45.2741 0.10574
lfingers 7.12502 -0 0
lthumb 5.40421 75.1776 0.101333
rclavicle 2.79541e-15 -7.95139e-15 0
rhumerus 9.73913 28.4543 -71.4247
rradius 70.0215 -0 0
rwrist -14.5722 0 0
rhand 11.0313 -27.3061 1.49776
rfingers 7.12502 -0 0
rthumb 35.281 -47.9955 3.69339
